<svg id="Layer_1" data-name="Layer 1" xmlns="http://www.w3.org/2000/svg" viewBox="0 0 232.9 134.97"><defs><style>.cls-1{fill:#fff;}.cls-2{fill:#c5c4c0;}</style></defs><path class="cls-1" d="M0,92.89c1.35-3.39,2.16-7,4.19-10.1,1.31-2,2.71-3.86,5.22-4.32,1.07-.19,2.34-.51,3,.81s-.35,1.9-1.06,2.68C6,87.85,4.09,94.56,6.83,102.23c1.74,4.84,5.5,8,10.07,8.48-.68-2.16-1.4-4.23-2-6.34a32.66,32.66,0,0,1,.16-16.94,9.89,9.89,0,0,1,3-5.11,12.56,12.56,0,0,0,4.23-8.41A55.75,55.75,0,0,1,31,50.1a80.25,80.25,0,0,0,5.79-10.57,21.87,21.87,0,0,1,4.76-6.64A45.69,45.69,0,0,0,51.81,17c1-2.67,2.21-5.16,4.75-6.78a5.4,5.4,0,0,0,1.92-3.27c.71-2.29,1.37-4.6,2-6.91H61c.62,1.61,1.24,3.22,1.93,5,1.22-1.34.86-3.14,2.14-4.23C66.87,3.12,67,5.74,66.77,8.38a3.42,3.42,0,0,0,2.16,3.86,3,3,0,0,1,1.62,1.36c1.47,4.23,5.35,5.28,8.82,6.85,2.68,1.21,2.84,1.53,1.53,4.1a7.15,7.15,0,0,1-5.63,4.06c-2.31.34-4.65.28-7,.84-5.68,1.39-8.36,5.76-7,11.44,1.78,7.4,3,14.84,1.11,22.43a49.5,49.5,0,0,1-4.28,10.45A3.41,3.41,0,0,1,57,73.39c-3.47-2.82-6.14-6-6.25-10.88-.09-3.92-.13-8-3.52-10.85a11.43,11.43,0,0,1-3.64-4.09c-.3-.7-1.21-1.15-1.33-.38-.53,3.45-1.63.89-2.56.35-.52-.3-.85-1.21-1.57-.83s-.37,1.3-.34,2c.06,1.07.84,2.45-.53,3-3.24,1.32-4,5-6.81,6.7-.54.34-.45,1-.46,1.56,0,2.26,1.34,3.74,4,4.35s3.49,1.66,3.13,4.37a21.15,21.15,0,0,1-1.71,5.75A9.62,9.62,0,0,0,37,85a12,12,0,0,1,2.75,5.56c1.22,7.1.22,14.06-1.45,21a2.93,2.93,0,0,1-2.22,2.31,2.16,2.16,0,0,0-1.68,2.74,48.05,48.05,0,0,0-6.64,1.06c-8.88,1.59-16.47-.91-22.74-7.38a18.72,18.72,0,0,1-4.07-7.81c-.24-.79-.06-1.77-.93-2.32Z"/><path class="cls-1" d="M232.9,60c-.08,0-.21,0-.22.08-2.32,6.59-3.74,7.6-10.87,7.58-2.9,0-5.8,0-8.7-.11-1.2,0-1.87.33-1.74,1.63a1.92,1.92,0,0,1,0,.24c-.27,6.29-.27,6.27,6,6.3,2.34,0,4.69,0,7,.24,4.19.43,6.6,3.36,6.62,7.79,0,4.69-2.24,7.71-6.41,8.24a56.19,56.19,0,0,1-11.08.17c-1.74-.12-2.18.55-2.15,2.21.06,3.94.09,7.89-.18,11.82s-2.49,6-6.21,6.66a19,19,0,0,1-6.25.13c-4.95-.73-7.2-3.3-7.2-8.31q0-21.52,0-43c0-1.29,0-2.58,0-3.87.14-5,3-7.91,8-7.92q12.21,0,24.43,0c5.36,0,8,2.41,8.46,7.76,0,.38-.06.82.47,1Z"/><path class="cls-1" d="M222.25,135a6.21,6.21,0,0,1-3.34-5.88c.15-4.44,2.72-6.08,7.2-4.46.49-.82.15-1.73.27-2.59.17-1.25,1-1.56,2.06-1.5s1.64.55,1.63,1.65c0,3.55-.09,7.1,0,10.64.07,1.64-1.46,1.36-2.05,2.14Zm4.29-5.67c-.19-1.25-.52-2.54-2-2.48-1.34.05-1.76,1.16-1.76,2.42s.33,2.47,1.94,2.43S226.35,130.45,226.54,129.3Z"/><path class="cls-1" d="M196.58,135c-2.41-1.61-4-7.38-2.7-10.06a1.83,1.83,0,0,1,2-1,1.51,1.51,0,0,1,1.57,1.5c.06,1.37.07,2.74.07,4.11,0,1,.18,2,1.47,2.07,1.51.09,1.62-1,1.66-2.11,0-1.29,0-2.58.07-3.86s.85-1.79,2.1-1.73,1.59.81,1.58,1.93a63.47,63.47,0,0,0,0,6.76c.17,1.76-1.32,1.65-2.08,2.36Z"/><path class="cls-1" d="M207.72,135a4,4,0,0,1-1.09-3c.12-2,.06-4,0-6s1.26-2.46,2.67-1.76a2.67,2.67,0,0,0,2.55,0c2.63-1,4.64.07,5.27,2.8.48,2.07.15,4.17.18,6.25,0,1.31-1.39,1.05-1.86,1.78h-1c-1.15-1.33-.93-2.95-1-4.54-.06-1.33.63-3.43-1.48-3.46-2.36,0-1.51,2.18-1.61,3.55-.13,1.82.44,3.91-2.21,4.45Z"/><path class="cls-1" d="M208.21,135c2.65-.54,2.08-2.63,2.21-4.45.1-1.37-.75-3.6,1.61-3.55,2.11,0,1.42,2.13,1.48,3.46.06,1.59-.16,3.21,1,4.54Z"/><path class="cls-1" d="M127.42,82q0-11.36,0-22.72c0-6,2.9-9,8.89-8.9,7.57.08,15.15-.37,22.72.41a33.69,33.69,0,0,1,7.52,1.67c8.55,3,12,9.48,12.35,18,.31,7.57-1.34,14.44-7.74,19.34-1.11.84-.71,1.57-.22,2.47,1.86,3.38,3.71,6.77,5.52,10.18a20.15,20.15,0,0,1,1.49,3.28c1.31,4.13-.28,6.68-4.52,7.59a25.3,25.3,0,0,1-6,.39c-4.63-.14-7.9-2.19-9.74-6.59-1.45-3.48-3.31-6.8-4.79-10.27-1-2.25-2.82-1.55-4.34-1.5-1.71.06-1.12,1.56-1.11,2.63,0,2.57.07,5.16,0,7.73-.13,4.48-2.32,7-6.75,7.76a17.59,17.59,0,0,1-2.4.25c-8,.28-10.86-2.46-10.86-10.45ZM147.28,74c0,1.61,0,3.22,0,4.82,0,.92.13,1.59,1.28,1.55,2-.08,4,.15,6-.37a5.14,5.14,0,0,0,4.29-5.09c.43-4.71-1.31-6.91-6-7.5-1.19-.15-2.41,0-3.61-.12-1.44-.12-2.07.35-2,1.88S147.28,72.41,147.28,74Z"/><path class="cls-2" d="M34.38,116.59a2.16,2.16,0,0,1,1.68-2.74,2.93,2.93,0,0,0,2.22-2.31c1.67-6.91,2.67-13.87,1.45-21A12,12,0,0,0,37,85a9.62,9.62,0,0,1-1.51-10.59,21.15,21.15,0,0,0,1.71-5.75c.36-2.71-.43-3.74-3.13-4.37S30,62.21,30,60c0-.57-.08-1.22.46-1.56,2.76-1.73,3.57-5.38,6.81-6.7,1.37-.56.59-1.94.53-3,0-.67-.48-1.55.34-2s1.05.53,1.57.83c.93.54,2,3.1,2.56-.35.12-.77,1-.32,1.33.38a11.43,11.43,0,0,0,3.64,4.09c3.39,2.84,3.43,6.93,3.52,10.85.11,4.83,2.78,8.06,6.25,10.88a3.41,3.41,0,0,0,1.14.38c.08.39,0,.91.26,1.14a107.29,107.29,0,0,0,8,8c.25,1.8,1.59,3,2.63,4.24a21.63,21.63,0,0,1,4.6,19.43c-.12.55-.69,1.31.09,1.74s1.19-.32,1.66-.7c3.17-2.51,4.39-7.36,2.88-11.67a54.64,54.64,0,0,0-5.19-10c-1.87-3.05-3.34-6.24-3.42-9.9a12.51,12.51,0,0,1,3.23-8.75c.65-.76,1.37-1.63,2.6-1.46.06.75-.21,1.73,1.14.7a7.6,7.6,0,0,1,6.65-1.61c2.41,1.46,4.73,3,3.68,6.42-2.28-1.48-4.33-3.71-7.49-2.22-2.27-.45-4.38.86-5.57,3.43a9.15,9.15,0,0,0,.25,7.93,34.65,34.65,0,0,0,4.87,8c5.15,6.2,4.55,17.58-1.23,21.71-5.2,3.71-10.44,7.57-17.46,7-3.91-.33-7.88.42-11.79-.49-.48-.11-.95-.16-1.16-.69a2.75,2.75,0,0,1,2.27-2.49c2.28-.64,2.58-2.19,2-4.1a21.49,21.49,0,0,0-5.39-8.78,4.23,4.23,0,0,0-.36.75c-.94,4.88-2,9.72-4.64,14a1.77,1.77,0,0,0-.08,1.63C38.93,117,36.6,117.59,34.38,116.59Z"/><path class="cls-1" d="M79.48,69.05c3.16-1.49,5.21.74,7.49,2.22.79.71,1.64.8,2.3-.06A2.61,2.61,0,0,0,89.38,68c-1.44-2.12-3.37-3.43-6.09-3.19a7.6,7.6,0,0,0-6.65,1.61c-1.35,1-1.08.05-1.14-.7v0l.36-.49c1.19-3.07,2.35-6.16,3.59-9.22,1.81-4.42,4.54-6.22,9.31-6.24h4.6c5.88,0,8.43,1.75,10.53,7.32q6.64,17.61,13.27,35.22c1.35,3.62,2.76,7.21,4,10.86,1.85,5.38-.25,8.83-5.85,9.73a18.19,18.19,0,0,1-7.2-.28,8.3,8.3,0,0,1-6.2-6.17c-.58-2-1.64-2.62-3.67-2.54-3.94.15-7.9,0-11.85.07-1.41,0-2.06-.17-1.69-1.82,1.19-5.23-.34-9.8-3.46-14-2.34-3.17-4.64-6.41-5.43-10.41A8,8,0,0,1,79.48,69.05Zm12.24,6.3-.55,0q-2,6.25-4,12.5c-.35,1.06.25,1.22,1.11,1.21,2.18,0,4.35,0,6.53,0,.7,0,1.39-.07,1.08-1C94.5,83.81,93.1,79.58,91.72,75.35Z"/><path class="cls-1" d="M81.58,128.12v-1.69c0-3.54,0-3.53,3.61-3,1.15.17,2.19-1.13,3.22-.58,2.09,1.09,4,.7,6.1.08s3.48.58,3.88,2.86a26.69,26.69,0,0,1,.15,6.25c-.07,1.13-.72,1.51-1.75,1.54s-1.9-.36-1.93-1.6c0-1.45,0-2.9,0-4.35,0-1-.34-1.82-1.48-1.78-1,0-1.32.77-1.33,1.68,0,1.45-.06,2.9-.07,4.35,0,1.21-.67,1.7-1.83,1.71s-1.84-.49-1.88-1.67,0-2.58,0-3.87c0-.95,0-2.15-1.33-2.16s-1.51,1.2-1.53,2.27,0,2.26,0,3.38-.36,2-1.75,2.05-2-.78-2-2.11Z"/><path class="cls-1" d="M69.67,76c.08,3.66,1.55,6.85,3.42,9.9a54.64,54.64,0,0,1,5.19,10c1.51,4.31.29,9.16-2.88,11.67-.47.38-1,1.06-1.66.7s-.21-1.19-.09-1.74a21.63,21.63,0,0,0-4.6-19.43c-1-1.29-2.38-2.44-2.63-4.24C68,80.8,68.08,78,69.67,76Z"/><path class="cls-1" d="M122.73,126.78a7.67,7.67,0,0,1,0-1c.24-1.78-.93-4.41.74-5.17a10.19,10.19,0,0,1,8,.23c2,.84,3,4.31,1.53,6.22-1.12,1.45-1.24,2.52-.25,4,.46.67,1.24,1.67.16,2.28a2.26,2.26,0,0,1-3.06-.47,19.24,19.24,0,0,1-1.18-2.08c-.3-.53-.41-1.29-1.3-1.17s-.68.93-.71,1.51c0,.88,0,1.83-.88,2.35a2,2,0,0,1-3-1.64c-.11-1.68,0-3.37,0-5.06Zm5.2-3.44c-1.1-.22-1.67.2-1.51,1.39.12.92-.51,2.34,1.22,2.29,1,0,2.1-.24,2.13-1.72C129.8,124,129.29,123.32,127.93,123.34Z"/><path class="cls-1" d="M60.53,133.6c-1.21,0-1.78-.11-2.29-.62-1.94-1.92-3.84-1.91-5.91,0a2.25,2.25,0,0,1-2.66.41c-.9-.48-.73-1.43-.38-2.33q1.8-4.7,3.5-9.44A2.07,2.07,0,0,1,55,120.2c1.18,0,2.28.07,2.77,1.38,1.27,3.37,2.55,6.72,3.78,10.1C62.07,133.11,61.24,133.57,60.53,133.6Zm-5.21-8.55c-.39,1.3-1.68,2.34-.93,3.73.29.54,1.42.47,1.72.09C57.21,127.47,55.54,126.37,55.32,125.05Z"/><path class="cls-1" d="M111.37,128.24v1.93c0,3.44,0,3.44-3.5,2.71-.64-.13-1,.39-1.52.55-2,.64-3.84.41-5.18-1.4s-1.34-5.78.09-7.53a4,4,0,0,1,5.17-1.18,1.85,1.85,0,0,0,1.93,0c2-1,3-.25,3,2C111.39,126.3,111.37,127.27,111.37,128.24Zm-3.56,0c-.18-1.18-.43-2.42-1.85-2.44s-2,1.05-1.94,2.45c0,1.25.36,2.36,1.75,2.42C107.35,130.8,107.61,129.5,107.81,128.29Z"/><path class="cls-1" d="M41.21,117a1.77,1.77,0,0,1,.08-1.63c2.63-4.32,3.7-9.16,4.64-14a4.23,4.23,0,0,1,.36-.75,21.49,21.49,0,0,1,5.39,8.78c.56,1.91.26,3.46-2,4.1A2.75,2.75,0,0,0,47.39,116,29.37,29.37,0,0,1,41.21,117Z"/><path class="cls-1" d="M140.29,122.88c2.8,0,4.52,1.34,5.15,3.78.45,1.75-.25,2.42-1.9,2.43-1.29,0-2.58,0-3.86,0-.43,0-1.05-.23-1.14.49-.07.53.35.89.74,1.16a2.42,2.42,0,0,0,2.91-.15c.95-.61,2.19-.94,2.75.18s-.66,1.78-1.56,2.27a6.52,6.52,0,0,1-7-.63,5.42,5.42,0,0,1-1.36-6.19C135.78,124,137.69,122.86,140.29,122.88Zm1.59,3.76c-1.24-1.91-2-1.9-3.26,0A7.32,7.32,0,0,0,141.88,126.64Z"/><path class="cls-1" d="M63,128.33V126.4c0-3.6.12-3.72,3.55-2.71.71.21,1-.28,1.5-.46,3.1-1.19,5.49.32,5.61,3.63,0,1.68,0,3.36,0,5,0,1.28-.67,1.7-1.8,1.7s-1.8-.48-1.78-1.74,0-2.72-.1-4.09c-.05-1.07-.49-2-1.71-1.85s-1.5,1-1.48,2.1c0,1.28,0,2.57,0,3.85s-.66,1.73-1.83,1.74-1.87-.5-1.93-1.67,0-2.41,0-3.61Z"/><path class="cls-1" d="M158.73,128.24A5.08,5.08,0,0,1,162.8,123c2.6-.6,5.27.45,6.29,2.46,1.22,2.43.51,3.63-2.17,3.66-1,0-1.94,0-2.91,0-.49,0-1.26-.33-1.35.54s.48,1.16,1.12,1.39c1.11.4,2-.19,2.95-.67s1.86-.51,2.32.46-.38,1.52-1.05,1.93a6.6,6.6,0,0,1-6.69.29A4.75,4.75,0,0,1,158.73,128.24Zm3.88-1.64a6.23,6.23,0,0,0,3.48,0C165,125,164,124.73,162.61,126.6Z"/><path class="cls-1" d="M188.31,121.22c1,0,1.93,0,2.89,0a1.66,1.66,0,0,1,.11,3.27,4.2,4.2,0,0,0-.47.08c-1,.25-2.82-.62-2.87,1.19s1.69.81,2.62,1,1.68.5,1.65,1.67a1.42,1.42,0,0,1-1.73,1.53c-2.18-.36-3,.36-2.58,2.57.21,1.21-.35,1.91-1.76,1.94s-2.09-.57-2.1-1.95c0-3.14,0-6.27,0-9.4a1.76,1.76,0,0,1,2.08-2c.73,0,1.45,0,2.17,0Z"/><path class="cls-1" d="M175.44,122.6c1,.51,2.44.26,2.48,1.75s-1,1.31-2,1.55c-.78.19-.61,1-.6,1.64,0,1.44,0,2.89,0,4.34,0,1.22-.63,1.72-1.8,1.73s-1.84-.53-1.87-1.71,0-2.57,0-3.86c0-1,.22-2.12-1.1-2.63-.51-.21-.74-1-.46-1.22,1.8-1.57,1.79-4.68,4.62-5.37,1.34-.32,2.77-.5,3.37.9.69,1.64-.91,1.63-1.92,2C175.9,121.79,175.76,122.17,175.44,122.6Z"/><path class="cls-1" d="M117.25,126.78v5.07c0,1.21-.61,1.74-1.79,1.76s-1.87-.51-1.88-1.68c0-3.55,0-7.09,0-10.64a1.58,1.58,0,0,1,1.82-1.74c1.35,0,1.9.63,1.89,1.91,0,1.77,0,3.54,0,5.32Z"/><path class="cls-1" d="M151.07,126.52c0,1.78,0,3.55,0,5.32,0,1.24-.66,1.72-1.81,1.77s-1.92-.5-1.94-1.65q-.11-5.31,0-10.64c0-1.24.83-1.86,2.1-1.79s1.69.75,1.67,1.91C151.06,123.14,151.07,124.83,151.07,126.52Z"/><path class="cls-1" d="M79.41,128.52c0,1.12,0,2.25,0,3.37s-.63,1.7-1.79,1.71-1.85-.47-1.86-1.68q0-3.63,0-7.24c0-1.2.64-1.74,1.82-1.73s1.84.46,1.82,1.72S79.41,127.23,79.41,128.52Z"/><path class="cls-1" d="M156.88,128.25c0,1.21,0,2.42,0,3.63s-.69,1.69-1.84,1.72-1.9-.49-1.93-1.66c-.06-2.41-.07-4.83,0-7.25,0-1.27.85-1.83,2.11-1.73a1.61,1.61,0,0,1,1.66,1.91C156.86,126,156.88,127.12,156.88,128.25Z"/><path class="cls-1" d="M79.64,120.07a1.78,1.78,0,0,1-2,1.85c-1.1,0-1.92-.43-2.05-1.56-.15-1.31.71-1.91,1.87-2A1.84,1.84,0,0,1,79.64,120.07Z"/><path class="cls-1" d="M157.11,120.11c-.05,1.27-.85,1.77-2.05,1.8s-1.91-.41-2-1.58.68-1.94,1.87-2A1.89,1.89,0,0,1,157.11,120.11Z"/><path class="cls-1" d="M75.86,65.29l-.36.49Z"/></svg>