<svg id="Layer_1" data-name="Layer 1" xmlns="http://www.w3.org/2000/svg" xmlns:xlink="http://www.w3.org/1999/xlink" viewBox="0 0 600 600"><defs><style>.cls-1{fill:none;}.cls-2{clip-path:url(#clip-path);}.cls-3{fill:#fff;}</style><clipPath id="clip-path"><rect class="cls-1" x="92.17" y="75" width="450" height="450"/></clipPath></defs><g id="donate"><g class="cls-2"><g class="cls-2"><path class="cls-3" d="M266.23,525c-8.43-.87-16.91-1.35-25.26-2.68-13.82-2.21-27.55-5-41.53-7.53v-5.17q0-76.65-.08-153.31a6.76,6.76,0,0,1,3.66-6.6,91.9,91.9,0,0,1,107.44,6.36c9.05,7.36,18.91,11.13,30.65,10.82,14.35-.37,28.71-.28,43.06,0,11.29.21,19.65,5.72,24.06,16.12,4.26,10.05,2.48,19.58-4.76,27.79-5.58,6.32-12.9,8.76-21.22,8.75q-38.67-.06-77.33,0c-8.34,0-13.91,4.89-14.3,12.3-.42,7.85,5,13.76,13,14,5.7.18,11.42,0,17.13,0,26.95,0,53.9-.19,80.85.07,15.22.15,27.3-5.15,37.21-17,18.54-22.1,37.67-43.7,56.6-65.47,8.45-9.73,20.76-12.53,31.73-7.38s16.63,16.7,14.62,29.6A43.88,43.88,0,0,1,533,405.6Q502.8,445.79,472.65,486c-16.46,21.94-38.11,35-65.47,38.33a11.33,11.33,0,0,0-2.06.63Z"/><path class="cls-3" d="M92.17,350.1c3.55-7.52,9.52-10.23,17.71-9.76,9.19.53,18.5-.38,27.62.62,20.85,2.27,35.25,18,35.46,39q.51,52.9,0,105.8c-.21,20.09-13.88,35.28-33.46,38.65a9,9,0,0,0-1.6.63h-36l-9.67-9.67Z"/><path class="cls-3" d="M92.17,515.33l9.67,9.67H92.17Z"/><path class="cls-3" d="M322.89,112.29c7-7.17,13.41-15.07,21.1-21.44,25.7-21.3,65.65-21,91.52.09,32.22,26.27,41.19,73.83,21.26,110.67-11,20.29-25.93,37.27-42.95,52.39-26.71,23.73-54,46.85-81.06,70.16-6.08,5.23-12.78,5.35-18.7.22-29.1-25.23-58.35-50.29-87-76-16.33-14.63-30.09-31.52-39.53-51.64-17.1-36.45-7.05-81.32,24-106.15,28.37-22.69,71.7-20.37,97.2,5.4,5.22,5.28,9.8,11.19,14.22,16.28"/></g></g></g></svg>