<svg id="Layer_1" data-name="Layer 1" xmlns="http://www.w3.org/2000/svg" viewBox="0 0 159 147"><defs><style>.cls-1{fill:#fff;}</style></defs><path class="cls-1" d="M14,76.11V68.27L14.24,67c.71-4.16,1.07-8.41,2.18-12.45A66.88,66.88,0,0,1,100.71,8.25c33.38,10.25,53.52,44.86,45.37,78.9-5.85,24.43-21.24,40.61-45,48.77-3.83,1.31-7.9,1.94-12,2.91V86.11h16c.81-6.27,1.6-12.38,2.41-18.67H89.06V56.31c0-.83,0-1.66.08-2.48.48-4.86,2.79-7.08,7.68-7.27,3.31-.12,6.62-.1,9.93-.15.46,0,.92,0,1.46-.07,0-5.37,0-10.6,0-15.82a1.32,1.32,0,0,0-.9-.88c-5.31-.23-10.62-.64-15.92-.51a21.56,21.56,0,0,0-13.69,5.13C72.51,38.62,70.29,44.41,69.94,51c-.26,4.95-.14,9.93-.19,14.89,0,.51,0,1,0,1.67h-16v18.7h16V138a1.92,1.92,0,0,1-.44,0,63.85,63.85,0,0,1-16.85-5.38A66.41,66.41,0,0,1,27.19,112,65.43,65.43,0,0,1,15,83.85C14.6,81.29,14.34,78.69,14,76.11Z"/></svg>