<svg id="Layer_1" data-name="Layer 1" xmlns="http://www.w3.org/2000/svg" xmlns:xlink="http://www.w3.org/1999/xlink" viewBox="0 0 600 600"><defs><style>.cls-1{fill:none;}.cls-2{clip-path:url(#clip-path);}.cls-3{fill:#fff;}</style><clipPath id="clip-path"><rect class="cls-1" x="75.01" y="75" width="449.98" height="450"/></clipPath></defs><g id="foster"><g class="cls-2"><g class="cls-2"><path class="cls-3" d="M358.73,459.81c.45,0,1.15.12,1.86.12,36.17,0,72.35,0,108.53.09,2.86,0,3.74-1.33,4.66-3.49q24.72-57.9,49.45-115.78a21,21,0,0,0,1.68-8.05q.17-59.31,0-118.64a36.24,36.24,0,0,0-1.37-9.94c-4.2-14.35-18.7-23.72-33.12-21.67A31,31,0,0,0,463.55,213c-.18,27.68-.11,55.36,0,83a7.64,7.64,0,0,0,2.54,5c22.75,19.77,27,51.55,10,76.54-4.69,6.9-9.52,13.71-14.35,20.51-5,7-12.8,8.73-19.1,4.38s-7.44-12.32-2.57-19.4c4.65-6.75,9.47-13.38,14.08-20.16,9.87-14.53,6.9-33-6.83-42.94s-32.85-7-43.19,7.38c-12.6,17.44-24.8,35.17-37,52.89-4.62,6.71-8.09,14.26-8.3,22.39-.47,18.86-.15,37.74-.15,57.18M127.78,486.5c0,8.95-.19,17.43,0,25.89a12.89,12.89,0,0,0,13.23,12.55q43.88.12,87.76,0c6.46,0,12.23-4.28,12.7-10.53.7-9.23.18-18.56.18-27.9Zm230.27,0c0,9-.22,17.63.08,26.22a12.67,12.67,0,0,0,12.64,12.19q44.33.21,88.65,0c6.36,0,12.06-4.59,12.48-10.82.61-9.11.15-18.3.15-27.6Zm-71-192.1h25.81V224.66H287Z"/><path class="cls-3" d="M303.52,75c8.92,7.49,18,14.8,26.73,22.51Q375.7,137.65,420.93,178a39,39,0,0,1,2.87,2.73,13.06,13.06,0,0,1,.35,17.61,12.92,12.92,0,0,1-17.81,1.76c-4.58-3.61-8.84-7.64-14.07-12.2v5.35q0,42.84,0,85.68c0,10.84-5,15.75-15.88,15.76-12.12,0-24.24,0-36.83,0v-5.08q0-38,0-76c0-10.57-5-15.57-15.6-15.57q-24.39,0-48.78,0c-9.41,0-14.72,5.3-14.73,14.68,0,27.09,0,54.18,0,82h-4.3q-16.47,0-32.95,0c-10.34,0-15.45-5.06-15.45-15.29q0-42.86,0-85.69V188c-4.33,3.79-8,7-11.66,10.2-7,6.06-15,6.14-20.22.19s-4.23-13.65,2.58-19.71Q234.23,129,290.1,79.41A62.37,62.37,0,0,1,296.49,75Z"/><path class="cls-3" d="M75,207.71c.45-1.2,1-2.38,1.34-3.6,4.47-14.24,18.32-23.44,32.73-21.72,14.86,1.77,27,14.19,27.26,29.24.43,28.39.19,56.8.1,85.2a6.17,6.17,0,0,1-2.12,3.91c-23.78,20.94-27.64,52.18-9.56,78.17,4.51,6.49,9,13,13.6,19.42,4.86,6.82,12.94,8.46,19.15,4s7.17-12.22,2.46-19.1-9.45-13.39-14.07-20.15c-10.05-14.7-7-33.33,6.9-43.22s32.8-6.7,43.14,7.67c12.32,17.09,24.29,34.43,36.27,51.77A55.16,55.16,0,0,1,242,411.1c.05,16.08,0,32.17,0,48.84h-4.9c-35,0-70-.05-105,.08-3.28,0-4.83-.95-6.12-4q-24.45-57.51-49.16-114.9c-.5-1.16-1.2-2.24-1.81-3.36Z"/><path class="cls-3" d="M358.73,459.81c0-19.44-.32-38.32.16-57.18.2-8.13,3.67-15.68,8.29-22.39,12.22-17.72,24.42-35.45,37-52.89C414.54,313,433.6,310,447.39,320s16.71,28.41,6.83,42.94c-4.61,6.78-9.44,13.41-14.08,20.16-4.87,7.08-3.77,15,2.57,19.4s14.14,2.59,19.1-4.38c4.83-6.8,9.66-13.61,14.35-20.51,17-25,12.72-56.77-10-76.54a7.64,7.64,0,0,1-2.54-5c-.15-27.68-.22-55.36,0-83.05a31,31,0,0,1,26.89-30.54c14.42-2,28.92,7.32,33.12,21.67a36.26,36.26,0,0,1,1.37,9.95q.14,59.31,0,118.63a21,21,0,0,1-1.68,8.05q-24.63,57.93-49.45,115.78c-.92,2.16-1.8,3.5-4.66,3.49-36.18-.12-72.36-.08-108.54-.09-.7,0-1.4-.09-1.85-.12"/><path class="cls-3" d="M127.78,486.5H241.7c0,9.34.52,18.67-.18,27.9-.47,6.25-6.24,10.51-12.7,10.53q-43.87.14-87.76,0a12.89,12.89,0,0,1-13.23-12.55c-.24-8.46,0-16.94,0-25.89"/><path class="cls-3" d="M358.05,486.49h114c0,9.3.46,18.49-.15,27.6-.42,6.23-6.12,10.8-12.48,10.82q-44.32.17-88.65,0a12.68,12.68,0,0,1-12.64-12.19c-.3-8.59-.08-17.21-.08-26.22"/><rect class="cls-3" x="287.02" y="224.66" width="25.81" height="69.73"/></g></g></g></svg>