<svg xmlns="http://www.w3.org/2000/svg" viewBox="0 0 239.84 139.08"><defs><style>.cls-1{fill:#fefefe;}.cls-2{fill:#0d2fa1;}.cls-3{fill:#e50000;}.cls-4{fill:#c5c4c0;}.cls-5{fill:#010101;}.cls-6{fill:#fea500;}.cls-7{fill:#030303;}.cls-8{fill:#f9f9f9;}</style></defs><g id="Layer_2" data-name="Layer 2"><g id="Layer_1-2" data-name="Layer 1"><path class="cls-1" d="M75,69.63c-.25-.08-.18.13-.22.24a15.11,15.11,0,0,0-3.11,8.25q-1.58,4-3.14,8.09a1.6,1.6,0,0,1-.4-.25c-2.43-2.89-5-5.61-7.75-8.26a2,2,0,0,1-.56-1.4c.47-1,.91-2,1.4-3a35,35,0,0,0,4-14.29A59,59,0,0,0,62.9,41.59a9.07,9.07,0,0,1,6.24-11,26.94,26.94,0,0,1,7-1A7.83,7.83,0,0,0,83.81,24c.54-1.47.4-1.85-1.09-2.45a38.3,38.3,0,0,1-7.36-3.67,4.54,4.54,0,0,1-2.08-2.54A4,4,0,0,0,71,12.58c-2-.79-2.59-2.16-2.24-4.14a5,5,0,0,0,.09-.95,11.71,11.71,0,0,0-1.89-7c-1,1.59-1,3.43-2,5C64,3.74,63.7,1.71,62.34,0L60.29,7a6.2,6.2,0,0,1-2.35,3.78,10.6,10.6,0,0,0-4.15,5.67A48,48,0,0,1,43.14,33.59,25.06,25.06,0,0,0,37.79,41a81.48,81.48,0,0,1-5.67,10.38C27.37,59,24,67,23,76a13.62,13.62,0,0,1-4.85,9.44,7.87,7.87,0,0,0-2.38,3.81,33.5,33.5,0,0,0,.32,21.4c.44,1.29,1,2.56,1.49,3.87a10.4,10.4,0,0,1-6.28-2.5c-5-4-7.1-11.85-5.06-18.58a20.76,20.76,0,0,1,5.63-9.31c.62-.59,1.14-1.27.69-2.23a1.88,1.88,0,0,0-2.22-1A7,7,0,0,0,5.19,84a32.09,32.09,0,0,0-1.81,3c-4,7.43-4.6,15.11-1,22.79,4.06,8.76,16.8,14.14,26.62,11.55a18.36,18.36,0,0,1,6.38-.81,15.7,15.7,0,0,0,6.72.26,33.08,33.08,0,0,0,6.41-1,1.67,1.67,0,0,0,2,.74c.23,0,.54-.16.68-.06,1.4,1,2.93.69,4.49.61,3.3-.18,6.62.1,9.92-.26,3-.32,5.8-1.06,8.1-3.14a3.64,3.64,0,0,1,1.11-.69c4.63-1.79,8-4.8,9.59-9.65l14.75,0c2.47,0,2.47,0,3.24,2.38,1.13,3.46,3.24,6,7,6.7a22.08,22.08,0,0,0,7.52.08c4.49-.68,6.72-3.85,5.88-8.3a12.51,12.51,0,0,0-.62-2.06q-4.22-11.23-8.45-22.48c-3.2-8.5-6.38-17-9.6-25.5-1.75-4.62-4.87-6.72-9.8-6.72-2,0-3.92,0-5.88,0a9.06,9.06,0,0,0-8.81,5.84c-1.25,3-2.33,6-3.45,9a12.75,12.75,0,0,0-1.11,3.36ZM127.54,84c0,7.88,0,15.76,0,23.64,0,4.81,2.23,7.92,6.23,8.71a22.12,22.12,0,0,0,7.17.14c4.57-.6,7.07-3.52,7.18-8.23.05-2.28,0-4.56,0-6.84,0-1.19-.4-2.81.2-3.46s2.34-.14,3.56-.25a1.42,1.42,0,0,1,1.62,1q2.83,6.14,5.8,12.2c1.3,2.65,3.25,4.69,6.25,5.32a23.24,23.24,0,0,0,10.46-.15c3.12-.78,4.49-3.26,3.86-6.41a14.16,14.16,0,0,0-1.56-4c-2.14-4-4.26-7.94-6.45-11.88-.38-.69-.33-1,.33-1.49a19,19,0,0,0,7.11-9.82,29.61,29.61,0,0,0,.34-16.43,16.65,16.65,0,0,0-9.56-11.58,32.62,32.62,0,0,0-11.8-2.84c-7.59-.55-15.19-.21-22.78-.23a7.46,7.46,0,0,0-7.7,6.23,15.73,15.73,0,0,0-.27,3C127.53,68.45,127.54,76.25,127.54,84Zm60.23,0q0,12,0,24.1c0,4.87,2.7,8,7.48,8.46a34.55,34.55,0,0,0,4.55.06c5.41-.2,8.35-3.28,8.37-8.69,0-3.92,0-7.84,0-11.76,0-.93.28-1.11,1.15-1.1,3.8,0,7.6.08,11.39,0,4.5-.15,7.31-3,7.7-7.43.48-5.55-2.37-9-7.89-9.36-3.75-.21-7.51-.11-11.27-.09-.83,0-1.1-.21-1.07-1.06.06-2,.07-4.08,0-6.11,0-1,.18-1.42,1.33-1.4,4.08.09,8.16.07,12.24,0,4.48,0,7.38-2.45,8.17-6.72A15.74,15.74,0,0,0,230,59c-.27-4.41-3.33-7.51-7.75-7.54q-13.31-.12-26.62,0a7.34,7.34,0,0,0-6.73,3.88A9.53,9.53,0,0,0,187.77,60ZM84.11,132.5c0,1.08,0,2.16,0,3.24,0,1.63.47,2.16,1.86,2.17s1.89-.52,1.9-2.13c0-1.44,0-2.88,0-4.32a1.43,1.43,0,0,1,1.44-1.58c1,0,1.45.51,1.54,1.45,0,.36.08.71.08,1.07,0,1.16,0,2.32,0,3.48,0,1.55.43,2,1.83,2s1.84-.49,1.85-2c0-1.2,0-2.4,0-3.6a7.87,7.87,0,0,1,.12-1.19,1.37,1.37,0,0,1,1.63-1.22,1.33,1.33,0,0,1,1.32,1.42c.05,1.64,0,3.28.06,4.92,0,1.22.6,1.68,1.85,1.69s1.87-.45,1.87-1.52a39.6,39.6,0,0,0-.14-6.35,3.34,3.34,0,0,0-4-3.14,3.9,3.9,0,0,0-2.9,1.46c-.21.26-.31.48-.67,0a3.76,3.76,0,0,0-5.47-.64c-.34.26-.4.41-.74-.06-.62-.88-1.59-.79-2.51-.51s-1,1-1,1.73C84.1,130.11,84.11,131.31,84.11,132.5Zm46.67-8.35c-1,0-1.72,0-2.43,0-1.06,0-1.68.52-1.68,1.59,0,3.55,0,7.11,0,10.66,0,.95.57,1.42,1.51,1.51,1.75.15,2.31-.36,2.32-2.14a6,6,0,0,1,0-1c.06-.38-.28-1,.42-1s1.27-.22,1.55.66a13.33,13.33,0,0,0,.86,1.84,2.52,2.52,0,0,0,3.29,1.57c.8-.18,1.11-.62.76-1.38a23.41,23.41,0,0,0-1.33-2.53,1.07,1.07,0,0,1,.23-1.66c1.62-1.47,1.59-3.41,1.06-5.33-.47-1.73-1.9-2.33-3.51-2.62A16,16,0,0,0,130.78,124.15ZM233.51,137.7c.51,1.33,1.55,1.37,2.61,1.18s1.25-1.15,1.25-2.13c0-3.47,0-6.95,0-10.42,0-1.31-.53-1.78-1.85-1.78s-1.85.44-1.9,1.74c0,1,0,2,0,3-3.11-2.74-6.68-1-7.39,2a8.36,8.36,0,0,0,.1,4.6C227.36,139.21,230.91,140.14,233.51,137.7ZM57,124.16c-1.08-.09-2.05,0-2.47,1.12-1.4,3.64-2.74,7.29-4.1,10.94a1.13,1.13,0,0,0,.24,1.33c.76.69,3,.47,3.28-.5.4-1.25,1.19-1.25,2.16-1.19a17.35,17.35,0,0,0,2,0c.79-.06,1.29.07,1.56,1s1.87,1.42,3,.93.72-1.43.42-2.24c-1.19-3.2-2.43-6.39-3.59-9.6C59.1,124.66,58.35,124,57,124.16Zm53.87,12.59a2.33,2.33,0,0,0,2.84,1.06c1.11-.35,1-1.27,1-2.16q0-3.22,0-6.47c0-.9,0-1.78-1.17-2.05a2.15,2.15,0,0,0-2.67,1.11c-3-2.71-7.17-1-7.55,3.1a10,10,0,0,0,.09,2.74,4.34,4.34,0,0,0,2.82,3.7A4.12,4.12,0,0,0,110.9,136.75ZM217,129.3c-.54-1.32-1.59-1.4-2.71-1.13s-1.11,1.28-1.11,2.21c0,2.24,0,4.47,0,6.71,0,1.3.57,1.83,1.82,1.85s1.9-.5,1.93-1.85,0-2.71,0-4.07.58-2.08,1.74-2.07,1.67.65,1.69,2.12,0,2.88,0,4.31c0,1.14.78,1.58,1.86,1.57s1.85-.48,1.85-1.55a38.84,38.84,0,0,0-.12-6.1,3.68,3.68,0,0,0-4.84-3.26A4.41,4.41,0,0,0,217,129.3Zm-148.22-1a2.12,2.12,0,0,0-2.65-1.22c-1.11.3-1.17,1.16-1.17,2.08,0,2.27,0,4.55,0,6.82,0,1.42.51,1.91,1.85,1.92s1.85-.5,1.86-1.9,0-2.87,0-4.31a1.69,1.69,0,0,1,2.48-1.63c.86.38.93,1.15,1,1.9,0,1.48,0,3,0,4.43,0,1.18.84,1.53,1.89,1.51,1.21,0,1.78-.48,1.8-1.58,0-1.8.07-3.6,0-5.39-.09-1.59-.48-3.15-2.26-3.72A4.21,4.21,0,0,0,68.81,128.31Zm138.28,9.33c.5,1.32,1.48,1.44,2.59,1.23s1.21-1.11,1.21-2c0-2.32,0-4.64,0-7,0-1.42-.48-1.83-1.92-1.82s-1.76.47-1.79,1.83c0,.56,0,1.12,0,1.67a29.21,29.21,0,0,1-.09,3.11,1.47,1.47,0,0,1-1.65,1.39,1.51,1.51,0,0,1-1.64-1.41c-.05-.43-.08-.87-.09-1.31,0-1.28,0-2.56,0-3.83,0-1.11-.8-1.45-1.81-1.45s-1.83.26-1.86,1.39c-.05,2-.07,4,.06,6,.11,1.52.68,2.92,2.38,3.38A4.25,4.25,0,0,0,207.09,137.64Zm-36.32-4.41h0c.88,0,1.76,0,2.64,0,1.15-.06,1.55-.56,1.45-1.71-.26-3.07-2.63-4.81-6.15-4.52a5.21,5.21,0,0,0-4.92,4.58,5.48,5.48,0,0,0,3,6c2.45,1.09,5.94.47,7.3-1.3l.15-.19c.45-.7.32-1.16-.5-1.46a2.17,2.17,0,0,0-2.22.37c-1.6,1.12-3.53.62-3.94-1-.13-.5-.14-.83.56-.8C169,133.26,169.89,133.23,170.77,133.23Zm-28.08,0c1.82,0,3.65,0,5.48,0,1.65,0,2.14-.64,1.79-2.27-.57-2.72-2.61-4.14-5.78-4a5.25,5.25,0,0,0-5.14,4.18c-.55,2.8.56,5.32,2.82,6.37s5.93.54,7.33-1.17a2.16,2.16,0,0,0,.27-.4c.3-.6.22-1-.48-1.31a2.19,2.19,0,0,0-2.33.36C144.87,136.32,142.46,135.26,142.69,133.23ZM190,132c0,1.72,0,3.44,0,5.16,0,1.28.56,1.76,1.89,1.76s1.89-.46,1.93-1.71c0-1-.33-2.2.14-2.8s1.86-.16,2.83-.25,1.48-.52,1.49-1.51a1.4,1.4,0,0,0-1.56-1.56c-.76,0-1.52,0-2.28,0-.27,0-.51,0-.62-.37-.4-1.53.06-2.18,1.6-2.18.48,0,1,0,1.44,0,1.29,0,1.75-.45,1.77-1.58s-.43-1.72-1.75-1.76c-1.71,0-3.43,0-5.15,0-1.29,0-1.71.49-1.73,1.79C190,128.66,190,130.34,190,132Zm-12.88,1.36h0c0,1,0,1.92,0,2.88,0,1.2.57,1.65,1.85,1.65s1.79-.45,1.82-1.68c0-1.64.06-3.28,0-4.92,0-1,.05-1.64,1.33-1.53a1.24,1.24,0,0,0,1.4-1.32c0-.94-.61-1.32-1.46-1.42-.12,0-.25,0-.36,0-.3-.08-.81.24-.86-.33a1.13,1.13,0,0,1,.64-1.18,3,3,0,0,1,1.3-.16c.64,0,.86-.46,1-1a1.12,1.12,0,0,0-.54-1.33,4.28,4.28,0,0,0-6,3.1c-.06.57-.12.94-.8,1a1.07,1.07,0,0,0-.93,1.09c0,.55,0,1.24.58,1.32,1.39.2,1.07,1.18,1.09,2C177.14,132.18,177.13,132.78,177.13,133.38Zm-21.35-2.55c0-1.76,0-3.52,0-5.27,0-1.52-.49-2-1.85-2s-1.91.5-1.91,2c0,3.48,0,7,0,10.43,0,1.48.52,2,1.91,2s1.84-.53,1.85-2C155.79,134.18,155.78,132.5,155.78,130.83Zm-35-.11c0-1.83,0-3.67,0-5.51,0-1.24-.52-1.68-1.79-1.7s-1.87.44-1.88,1.73c0,3.63,0,7.27,0,10.9,0,1.31.51,1.77,1.85,1.76s1.8-.46,1.82-1.79C120.84,134.31,120.82,132.52,120.82,130.72Zm41,1.79c0-1.24,0-2.48,0-3.72s-.57-1.73-1.77-1.76-1.95.47-2,1.7c-.05,2.51-.05,5,0,7.54,0,1.18.64,1.65,1.9,1.64s1.8-.49,1.84-1.69S161.78,133.74,161.78,132.51Zm-83.71-.12c0,1.28,0,2.56,0,3.84s.59,1.67,1.84,1.68,1.84-.44,1.86-1.65c0-2.51,0-5,0-7.54,0-1.21-.59-1.69-1.83-1.69s-1.85.51-1.88,1.77S78.07,131.2,78.07,132.39Zm81.84-6.56A1.92,1.92,0,0,0,162,124a2,2,0,0,0-2.16-1.79,1.85,1.85,0,0,0-2,1.79A1.79,1.79,0,0,0,159.91,125.83Zm-80,0A1.87,1.87,0,0,0,82,124a2,2,0,0,0-2.14-1.79,1.9,1.9,0,0,0-2,1.79A1.84,1.84,0,0,0,79.94,125.83Z"/><path class="cls-2" d="M35.35,120.5a18.36,18.36,0,0,0-6.38.81c-9.82,2.59-22.56-2.79-26.62-11.55C-1.22,102.08-.6,94.4,3.38,87a32.09,32.09,0,0,1,1.81-3,7,7,0,0,1,5.18-3.09,1.88,1.88,0,0,1,2.22,1c.45,1-.07,1.64-.69,2.23a20.76,20.76,0,0,0-5.63,9.31c-2,6.73.08,14.56,5.06,18.58a10.4,10.4,0,0,0,6.28,2.5c-.51-1.31-1.05-2.58-1.49-3.87a33.5,33.5,0,0,1-.32-21.4,7.87,7.87,0,0,1,2.38-3.81A13.62,13.62,0,0,0,23,76c.93-9,4.34-17,9.09-24.57A81.48,81.48,0,0,0,37.79,41a25.06,25.06,0,0,1,5.35-7.45A48,48,0,0,0,53.79,16.42a10.6,10.6,0,0,1,4.15-5.67A6.2,6.2,0,0,0,60.29,7l2.05-7C63.7,1.71,64,3.74,64.94,5.56c.93-1.61,1-3.45,2-5a11.71,11.71,0,0,1,1.89,7,5,5,0,0,1-.09.95c-.35,2,.22,3.35,2.24,4.14a4,4,0,0,1,2.33,2.74,4.54,4.54,0,0,0,2.08,2.54,38.3,38.3,0,0,0,7.36,3.67c1.49.6,1.63,1,1.09,2.45a7.83,7.83,0,0,1-7.7,5.56,26.94,26.94,0,0,0-7,1,9.07,9.07,0,0,0-6.24,11A59,59,0,0,1,65.15,59a35,35,0,0,1-4,14.29c-.49,1-.93,2-1.4,3-.49.19-.83-.08-1.17-.38a35,35,0,0,1-3.41-3.37,12.31,12.31,0,0,1-3.07-7.87c0-1.27-.12-2.55-.24-3.82-.33-3.37-1.27-6.4-4.42-8.33a7,7,0,0,1-2.59-3.23c-.23-.52-.44-1.29-1.23-1s-.27.87-.21,1.34a1.94,1.94,0,0,1,0,.24c0,.4.06.86-.37,1.06s-.63-.21-.88-.45c-.6-.59-1.21-1.17-1.83-1.73-.37-.34-.75-.85-1.33-.5s-.26.84-.18,1.3a12.59,12.59,0,0,1,.32,2.61c0,.61-.19,1.14-.8,1.34a8.1,8.1,0,0,0-4,3.5,8.84,8.84,0,0,1-3.13,3.24.8.8,0,0,0-.47.77c0,2.29.58,4.23,3.19,5,.57.17,1.17.24,1.75.37,1.87.38,2.37,1,2.5,2.94.18,2.73-.77,5.21-1.77,7.63A9.7,9.7,0,0,0,38.1,87.66a15,15,0,0,1,3.32,8.19,51,51,0,0,1-.4,10.63,46.76,46.76,0,0,1-1.37,8.14c-.35,1.25-.81,2.44-2.2,2.93C35.33,118.3,35.33,118.32,35.35,120.5Z"/><path class="cls-3" d="M131.44,84.6c0-7.8,0-15.6,0-23.4a14.79,14.79,0,0,1,.27-3A7.47,7.47,0,0,1,139.41,52c7.6,0,15.2-.32,22.78.23A32.67,32.67,0,0,1,174,55.06a16.68,16.68,0,0,1,9.56,11.58,29.61,29.61,0,0,1-.34,16.43,19.09,19.09,0,0,1-7.11,9.82c-.66.48-.71.8-.33,1.5,2.18,3.94,4.31,7.9,6.45,11.87a14.47,14.47,0,0,1,1.56,4c.63,3.15-.75,5.63-3.87,6.41a23,23,0,0,1-10.45.15c-3-.63-4.95-2.67-6.25-5.32q-3-6.08-5.81-12.2a1.41,1.41,0,0,0-1.62-1c-1.22.11-2.85-.51-3.55.25s-.19,2.27-.2,3.46c0,2.28,0,4.56,0,6.84-.11,4.71-2.61,7.63-7.19,8.23a22.07,22.07,0,0,1-7.16-.13c-4-.8-6.22-3.91-6.24-8.72Q131.43,96.41,131.44,84.6Zm20.47-8.46c0,2,0,4,0,6,0,.51,0,.93.71.91a52.51,52.51,0,0,0,5.75-.17c3.61-.49,5.24-2.16,5.6-5.72.4-4-1-6.41-4.39-7.31-2.35-.63-4.76-.36-7.15-.42-.66,0-.51.47-.52.84Z"/><path class="cls-4" d="M35.35,120.5c0-2.18,0-2.2,2.1-3,1.39-.49,1.85-1.68,2.2-2.93A46.76,46.76,0,0,0,41,106.48a51,51,0,0,0,.4-10.63,15,15,0,0,0-3.32-8.19,9.7,9.7,0,0,1-1.59-10.73c1-2.42,2-4.9,1.77-7.63-.13-1.91-.63-2.56-2.5-2.94-.58-.13-1.18-.2-1.75-.37-2.61-.77-3.19-2.71-3.19-5a.8.8,0,0,1,.47-.77A8.84,8.84,0,0,0,34.44,57a8.1,8.1,0,0,1,4-3.5c.61-.2.77-.73.8-1.34a12.59,12.59,0,0,0-.32-2.61c-.08-.46-.36-1,.18-1.3s1,.16,1.33.5c.62.56,1.23,1.14,1.83,1.73.25.24.46.64.88.45s.38-.66.37-1.06a1.94,1.94,0,0,0,0-.24c-.06-.47-.51-1.1.21-1.34s1,.51,1.23,1a7,7,0,0,0,2.59,3.23c3.15,1.93,4.09,5,4.42,8.33.12,1.27.21,2.55.24,3.82a12.31,12.31,0,0,0,3.07,7.87,35,35,0,0,0,3.41,3.37c.34.3.68.57,1.17.38a2,2,0,0,0,.56,1.4c2.7,2.65,5.32,5.37,7.75,8.26a1.6,1.6,0,0,0,.4.25c0,.45.37.69.6,1,2,2.64,4.2,5.15,5.57,8.2a22.1,22.1,0,0,1,1,15.78c-.09.33-.36.71.08,1s.58-.17.82-.33a10.79,10.79,0,0,0,4-12.8A61.37,61.37,0,0,0,75,88.33a20.19,20.19,0,0,1-3.35-10.21,15.11,15.11,0,0,1,3.11-8.25l.22-.24,0,0c2.46-2.81,5.64-3.34,9.15-2.91a7.36,7.36,0,0,1,5.2,3.06,3.29,3.29,0,0,1,.51,3,1.71,1.71,0,0,1-2.68,1.16,7.35,7.35,0,0,1-1.76-1.24c-3.56-3.73-7.9-1.29-9.27,2-1.45,3.49-.71,6.71.94,9.88a78,78,0,0,0,5.16,8c3.14,4.55,3.45,9.46,2.13,14.64-1.55,4.85-5,7.86-9.59,9.65a3.64,3.64,0,0,0-1.11.69c-2.3,2.08-5.1,2.82-8.1,3.14-3.3.36-6.62.08-9.92.26-1.56.08-3.09.38-4.49-.61-.14-.1-.45,0-.68.06a1.67,1.67,0,0,1-2-.74A3.6,3.6,0,0,1,51.37,117a2.3,2.3,0,0,0,.34-.12c1.46-.64,1.92-1.36,1.62-2.91-.79-4-3.23-7.09-5.86-10.32-.15.76-.26,1.29-.36,1.82-.85,4.6-1.86,9.14-4.34,13.21a4,4,0,0,0-.7,2.13A15.7,15.7,0,0,1,35.35,120.5Z"/><path class="cls-5" d="M197.57,84q0-12,0-24a9.52,9.52,0,0,1,1.08-4.72,7.35,7.35,0,0,1,6.73-3.88q13.32-.12,26.63,0c4.41,0,7.47,3.13,7.75,7.54a16.23,16.23,0,0,1-.09,3.94c-.79,4.27-3.69,6.67-8.17,6.72-4.08,0-8.16.06-12.23,0-1.15,0-1.37.36-1.33,1.4.08,2,.06,4.07,0,6.11,0,.85.25,1.07,1.07,1.06,3.76,0,7.53-.12,11.27.09,5.53.31,8.38,3.81,7.89,9.36-.39,4.48-3.2,7.28-7.7,7.43-3.79.12-7.59.07-11.39,0-.87,0-1.16.17-1.14,1.1.05,3.92,0,7.84,0,11.76,0,5.41-3,8.49-8.36,8.69a34.5,34.5,0,0,1-4.55-.06c-4.79-.51-7.48-3.59-7.48-8.46Q197.56,96.09,197.57,84Z"/><path class="cls-6" d="M87,107.28c1.32-5.18,1-10.09-2.12-14.64a78.08,78.08,0,0,1-5.17-8c-1.64-3.17-2.38-6.39-.94-9.88,1.38-3.32,5.71-5.76,9.28-2a7.29,7.29,0,0,0,1.75,1.24,1.71,1.71,0,0,0,2.68-1.16,3.26,3.26,0,0,0-.51-3,7.34,7.34,0,0,0-5.2-3.06c-3.5-.43-6.69.1-9.15,2.91a12.75,12.75,0,0,1,1.11-3.36c1.12-3,2.2-6.07,3.45-9A9.08,9.08,0,0,1,91,51.42c2,0,3.92,0,5.88,0,4.93,0,8.05,2.1,9.8,6.72,3.23,8.49,6.41,17,9.6,25.5q4.23,11.24,8.45,22.48a13.59,13.59,0,0,1,.63,2.06c.83,4.45-1.39,7.62-5.89,8.3a22,22,0,0,1-7.51-.08c-3.72-.73-5.82-3.24-6.95-6.7-.78-2.37-.77-2.37-3.25-2.38Zm7.24-30.67-5,15.47H99.3Z"/><path class="cls-7" d="M84.11,132.5c0-1.19,0-2.39,0-3.59,0-.76.14-1.47,1-1.73s1.89-.37,2.51.51c.34.47.4.32.74.06a3.76,3.76,0,0,1,5.47.64c.36.45.46.23.67,0a3.9,3.9,0,0,1,2.9-1.46,3.34,3.34,0,0,1,4,3.14,39.6,39.6,0,0,1,.14,6.35c0,1.07-.65,1.52-1.87,1.52s-1.81-.47-1.85-1.69c-.06-1.64,0-3.28-.06-4.92a1.33,1.33,0,0,0-1.32-1.42,1.37,1.37,0,0,0-1.63,1.22,7.87,7.87,0,0,0-.12,1.19c0,1.2,0,2.4,0,3.6,0,1.53-.47,2-1.85,2s-1.82-.48-1.83-2c0-1.16,0-2.32,0-3.48,0-.36,0-.71-.08-1.07-.09-.94-.54-1.49-1.54-1.45a1.43,1.43,0,0,0-1.44,1.58c-.06,1.44,0,2.88,0,4.32,0,1.61-.48,2.13-1.9,2.13s-1.85-.54-1.86-2.17C84.1,134.66,84.11,133.58,84.11,132.5Z"/><path class="cls-6" d="M71.64,78.12A20.19,20.19,0,0,0,75,88.33,61.37,61.37,0,0,1,80.57,99a10.79,10.79,0,0,1-4,12.8c-.24.16-.47.53-.82.33s-.17-.63-.08-1a22.1,22.1,0,0,0-1-15.78c-1.37-3-3.56-5.56-5.57-8.2-.23-.31-.59-.55-.6-1Q70.06,82.18,71.64,78.12Z"/><path class="cls-7" d="M130.78,124.15a16,16,0,0,1,3.06.17c1.61.29,3,.89,3.51,2.62.53,1.92.56,3.86-1.06,5.33a1.07,1.07,0,0,0-.23,1.66,23.41,23.41,0,0,1,1.33,2.53c.35.76,0,1.2-.76,1.38a2.52,2.52,0,0,1-3.29-1.57,13.33,13.33,0,0,1-.86-1.84c-.28-.88-.95-.72-1.55-.66s-.36.67-.42,1a6,6,0,0,0,0,1c0,1.78-.57,2.29-2.32,2.14-.94-.09-1.5-.56-1.51-1.51,0-3.55,0-7.11,0-10.66,0-1.07.62-1.58,1.68-1.59C129.06,124.14,129.78,124.15,130.78,124.15Zm-.36,4.95c.47.63-.79,2.07,1.11,2,1.63-.08,2.27-.55,2.25-1.91s-.69-1.82-2.48-1.82C129.75,127.34,130.86,128.56,130.42,129.1Z"/><path class="cls-7" d="M233.51,137.7c-2.6,2.44-6.15,1.51-7.2-1.78a8.36,8.36,0,0,1-.1-4.6c.71-3,4.28-4.74,7.39-2,0-1.06,0-2,0-3,0-1.3.57-1.75,1.9-1.74s1.84.47,1.85,1.78c0,3.47,0,7,0,10.42,0,1-.07,1.91-1.25,2.13S234,139,233.51,137.7Zm.26-4.15c0-1.63-.82-2.73-2.07-2.72s-2.06,1.14-2,2.86c0,1.57.88,2.51,2.16,2.45a1.68,1.68,0,0,0,1.33-.69A3.14,3.14,0,0,0,233.77,133.55Z"/><path class="cls-7" d="M57,124.16c1.32-.17,2.07.5,2.53,1.77,1.16,3.21,2.4,6.4,3.59,9.6.3.81.77,1.72-.42,2.24s-2.7.07-3-.93-.77-1-1.56-1a17.35,17.35,0,0,1-2,0c-1-.06-1.76-.06-2.16,1.19-.3,1-2.52,1.19-3.28.5a1.13,1.13,0,0,1-.24-1.33c1.36-3.65,2.7-7.3,4.1-10.94C55,124.21,56,124.07,57,124.16Zm-.12,4.2c-.52,1.59-.95,2.87-1.36,4.16-.06.2-.22.58.07.6a15.28,15.28,0,0,0,2.62,0c.27,0,.1-.4,0-.6Z"/><path class="cls-2" d="M42.07,120.76a4,4,0,0,1,.7-2.13c2.48-4.07,3.49-8.61,4.34-13.21.1-.53.21-1.06.36-1.82,2.63,3.23,5.07,6.31,5.86,10.32.3,1.55-.16,2.27-1.62,2.91a2.3,2.3,0,0,1-.34.12,3.6,3.6,0,0,0-2.89,2.78A33.08,33.08,0,0,1,42.07,120.76Z"/><path class="cls-7" d="M110.9,136.75a4.12,4.12,0,0,1-4.6,1,4.34,4.34,0,0,1-2.82-3.7,10,10,0,0,1-.09-2.74c.38-4.13,4.55-5.81,7.55-3.1a2.15,2.15,0,0,1,2.67-1.11c1.16.27,1.17,1.15,1.17,2.05q0,3.24,0,6.47c0,.89.07,1.81-1,2.16A2.33,2.33,0,0,1,110.9,136.75Zm-3.84-4.34c0,1.65.78,2.71,2,2.73s2.14-1.11,2.11-2.78a2.89,2.89,0,0,0-.5-1.69,1.78,1.78,0,0,0-2.4-.65A2.33,2.33,0,0,0,107.06,132.41Z"/><path class="cls-7" d="M217,129.3a4.41,4.41,0,0,1,2.15-1.26A3.68,3.68,0,0,1,224,131.3a38.84,38.84,0,0,1,.12,6.1c0,1.07-.66,1.54-1.85,1.55s-1.82-.43-1.86-1.57c-.06-1.43,0-2.87,0-4.31s-.54-2.1-1.69-2.12S217,131.56,217,133s0,2.72,0,4.07-.6,1.88-1.93,1.85-1.8-.55-1.82-1.85c0-2.24,0-4.47,0-6.71,0-.93-.08-1.93,1.11-2.21S216.49,128,217,129.3Z"/><path class="cls-7" d="M68.81,128.31a4.21,4.21,0,0,1,4.8-1.09c1.78.57,2.17,2.13,2.26,3.72.1,1.79.06,3.59,0,5.39,0,1.1-.59,1.55-1.8,1.58-1,0-1.85-.33-1.89-1.51,0-1.47,0-3,0-4.43,0-.75-.1-1.52-1-1.9a1.69,1.69,0,0,0-2.48,1.63c-.08,1.44,0,2.88,0,4.31s-.51,1.9-1.86,1.9S65,137.41,65,136c0-2.27,0-4.55,0-6.82,0-.92.06-1.78,1.17-2.08A2.12,2.12,0,0,1,68.81,128.31Z"/><path class="cls-7" d="M207.09,137.64a4.25,4.25,0,0,1-4.66,1.18c-1.7-.46-2.27-1.86-2.38-3.38-.13-2-.11-4-.06-6,0-1.13.87-1.39,1.86-1.39s1.76.34,1.81,1.45c.06,1.27,0,2.55,0,3.83,0,.44,0,.88.09,1.31a1.51,1.51,0,0,0,1.64,1.41,1.47,1.47,0,0,0,1.65-1.39,29.21,29.21,0,0,0,.09-3.11c0-.55,0-1.11,0-1.67,0-1.36.48-1.81,1.79-1.83s1.91.4,1.92,1.82c0,2.32,0,4.64,0,7,0,.92-.07,1.81-1.21,2S207.59,139,207.09,137.64Z"/><path class="cls-7" d="M170.77,133.23c-.88,0-1.76,0-2.64,0-.7,0-.69.3-.56.8.41,1.57,2.34,2.07,3.94,1a2.17,2.17,0,0,1,2.22-.37c.82.3,1,.76.5,1.46l-.15.19c-1.36,1.77-4.85,2.39-7.3,1.3a5.48,5.48,0,0,1-3-6,5.21,5.21,0,0,1,4.92-4.58c3.52-.29,5.89,1.45,6.15,4.52.1,1.15-.3,1.65-1.45,1.71-.88,0-1.76,0-2.64,0Zm-1.28-2.12c.4,0,.79,0,1.19,0,.25,0,.6.15.74-.16s0-.61-.23-.88a2.16,2.16,0,0,0-3-.37c-.37.3-.77.71-.61,1.2s.69.15,1,.21A5.73,5.73,0,0,0,169.49,131.11Z"/><path class="cls-7" d="M142.69,133.23c-.23,2,2.18,3.09,4,1.75a2.19,2.19,0,0,1,2.33-.36c.7.28.78.71.48,1.31a2.16,2.16,0,0,1-.27.4c-1.4,1.71-5,2.28-7.33,1.17s-3.37-3.57-2.82-6.37a5.25,5.25,0,0,1,5.14-4.18c3.17-.14,5.21,1.28,5.78,4,.35,1.63-.14,2.26-1.79,2.27C146.34,133.24,144.51,133.23,142.69,133.23Zm4-2.12a1.93,1.93,0,0,0-1.82-1.83,1.88,1.88,0,0,0-2.05,1.12c-.21.45-.22.74.43.72C144.39,131.08,145.51,131.11,146.72,131.11Z"/><path class="cls-5" d="M190,132c0-1.68,0-3.36,0-5,0-1.3.44-1.75,1.73-1.79,1.72,0,3.44,0,5.15,0,1.32,0,1.77.54,1.75,1.76s-.48,1.55-1.77,1.58c-.48,0-1,0-1.44,0-1.54,0-2,.65-1.6,2.18.11.41.35.37.62.37.76,0,1.52,0,2.28,0a1.4,1.4,0,0,1,1.56,1.56c0,1-.56,1.42-1.49,1.51s-2.28-.44-2.83.25-.1,1.84-.14,2.8c0,1.25-.59,1.72-1.93,1.71s-1.87-.48-1.89-1.76C190,135.46,190,133.74,190,132Z"/><path class="cls-7" d="M177.13,133.38c0-.6,0-1.2,0-1.8,0-.85.3-1.83-1.09-2-.54-.08-.61-.77-.58-1.32a1.07,1.07,0,0,1,.93-1.09c.68-.1.74-.47.8-1a4.28,4.28,0,0,1,6-3.1,1.12,1.12,0,0,1,.54,1.33c-.12.56-.34,1-1,1a3,3,0,0,0-1.3.16,1.13,1.13,0,0,0-.64,1.18c0,.57.56.25.86.33.11,0,.24,0,.36,0,.85.1,1.47.48,1.46,1.42a1.24,1.24,0,0,1-1.4,1.32c-1.28-.11-1.38.51-1.33,1.53.08,1.64.05,3.28,0,4.92,0,1.23-.54,1.67-1.82,1.68s-1.81-.45-1.85-1.65c0-1,0-1.92,0-2.88Z"/><path class="cls-7" d="M155.78,130.83c0,1.67,0,3.35,0,5,0,1.52-.49,2-1.85,2s-1.91-.51-1.91-2c0-3.48,0-6.95,0-10.43,0-1.48.52-2,1.91-2s1.84.53,1.85,2C155.79,127.31,155.78,129.07,155.78,130.83Z"/><path class="cls-5" d="M120.82,130.72c0,1.8,0,3.59,0,5.39,0,1.33-.5,1.79-1.82,1.79s-1.84-.45-1.85-1.76c0-3.63,0-7.27,0-10.9,0-1.29.54-1.75,1.88-1.73s1.77.46,1.79,1.7C120.84,127.05,120.82,128.89,120.82,130.72Z"/><path class="cls-7" d="M161.78,132.51c0,1.23,0,2.47,0,3.71s-.59,1.68-1.84,1.69-1.88-.46-1.9-1.64c-.05-2.51-.05-5,0-7.54,0-1.23.68-1.74,2-1.7s1.74.55,1.77,1.76S161.78,131.27,161.78,132.51Z"/><path class="cls-7" d="M78.07,132.39c0-1.19,0-2.39,0-3.59S78.67,127,80,127s1.82.48,1.83,1.69c0,2.51,0,5,0,7.54,0,1.21-.58,1.65-1.86,1.65s-1.81-.5-1.84-1.68S78.07,133.67,78.07,132.39Z"/><path class="cls-7" d="M159.91,125.83a1.79,1.79,0,0,1-2-1.81,1.85,1.85,0,0,1,2-1.79A2,2,0,0,1,162,124,1.92,1.92,0,0,1,159.91,125.83Z"/><path class="cls-7" d="M79.94,125.83A1.84,1.84,0,0,1,77.87,124a1.9,1.9,0,0,1,2-1.79A2,2,0,0,1,82,124,1.87,1.87,0,0,1,79.94,125.83Z"/><path class="cls-5" d="M75,69.63l-.22.24C74.79,69.76,74.72,69.55,75,69.63Z"/><path class="cls-8" d="M130.42,129.1c.44-.54-.67-1.76.88-1.75,1.79,0,2.46.5,2.48,1.82s-.62,1.83-2.25,1.91C129.63,131.17,130.89,129.73,130.42,129.1Z"/></g></g></svg>