<svg id="Layer_1" data-name="Layer 1" xmlns="http://www.w3.org/2000/svg" xmlns:xlink="http://www.w3.org/1999/xlink" viewBox="0 0 600 600"><defs><style>.cls-1{fill:none;}.cls-2{clip-path:url(#clip-path);}.cls-3{fill:#fff;}</style><clipPath id="clip-path"><rect class="cls-1" x="30" y="75" width="495" height="450"/></clipPath></defs><g id="shop"><g class="cls-2"><g class="cls-2"><path class="cls-3" d="M470.86,414.78V454H193.73c-.15-3-.68-6.24-.43-9.39,3.12-39.67-4.26-76.36-16.37-113-22.6-68.42-43.12-137.92-64.21-207.12-2.3-7.56-5.36-9.84-11.6-9.7-21.13.5-42.27.19-63.41.19H30V75.61c1.87-.17,3.37-.43,4.88-.43,30.48,0,61,.14,91.44-.18,4.71,0,6.05,2.91,7.4,7.37,6.89,22.74,14.17,45.29,20.72,68.18,2,7,4.73,9.11,10.55,9.1q175.22-.33,350.43-.17H525c-4.64,15.68-9,30.27-13.28,44.87q-26.1,88.5-52.06,177.06c-2,6.9-4.65,9.08-10.51,9.13-71.41.62-142.82,1.62-214.22,2.55-9.52.12-13.29,7.21-9.78,18.64a5,5,0,0,0,3.39,2.87,47.29,47.29,0,0,0,8,.19H470.86ZM372.39,309c6.76,21.67,15,29.92,28,28.2,11-1.45,19.94-12.46,21.7-26.75,1.84-15-5.05-27.29-19.54-34.9,15.6-9.08,22.07-21.13,19.63-36.57-2.28-14.46-11.69-24.8-23.28-25.62-13.24-.92-21.53,8.55-27,31.09H280.37c-5.93-23-13.74-31.88-27-31.08-11.25.68-20.67,10.83-23.06,24.86-2.61,15.37,3.32,27.58,18.1,37.26-15.17,11.24-20.42,22.26-17.81,37.36,2.32,13.36,11.3,23.38,21.9,24.42,12.84,1.26,20.59-6.64,27.49-28.27Z"/><path class="cls-3" d="M249.66,461.48c14,.37,24.52,14.23,24.33,32S262.5,525.32,248.37,525c-14-.31-25.05-14.95-24.76-32.72s11.6-31.18,26-30.79"/><path class="cls-3" d="M405.11,461.48c14,.09,24.93,13.87,24.94,31.32,0,17.89-11.12,32.11-25.18,32.18-14.34.08-25.41-14.37-25.19-32.88.21-17.46,11.21-30.71,25.43-30.62"/></g></g></g></svg>