<svg id="Layer_1" data-name="Layer 1" xmlns="http://www.w3.org/2000/svg" xmlns:xlink="http://www.w3.org/1999/xlink" viewBox="0 0 600 600"><defs><style>.cls-1{fill:none;}.cls-2{clip-path:url(#clip-path);}.cls-3{fill:#fff;}</style><clipPath id="clip-path"><rect class="cls-1" x="92.28" y="80.99" width="415.43" height="450"/></clipPath></defs><g id="Artwork_4" data-name="Artwork 4"><g class="cls-2"><g class="cls-2"><path class="cls-3" d="M195.94,340c0-30.93,0-60,0-89,0-24.48,1.16-49-.4-73.41-2.43-38.1,24.52-71.19,71.62-59.69,5.93-15.2,15.56-27.13,31.33-33.74,21.09-8.82,36.81,2.36,52.74,13.11,2.9,1.95,5.17,4.81,7.67,7.19,47.49-14,71.83.18,80.6,47a10.13,10.13,0,0,0,2.85.25c36.8-7.19,64.82,15.48,65.13,53.1.29,35.82.19,71.65.22,107.48q0,39.38,0,78.75c-.2,78.14-61.93,139.61-140.21,139.66-18.45,0-36.93-.69-55.33.15-38.12,1.74-71-11.17-100.34-34.4-27.82-22-55.45-44.25-83.12-66.44-6.63-5.31-13.6-10.33-19.57-16.33-19.23-19.32-22.15-46.63-7.78-68.05,14-20.84,39.86-27.85,65.12-17.63,9.16,3.71,18.3,7.46,29.51,12m207.89-52.16V246.46c0-31.59.15-63.18-.09-94.77-.09-11.85-6.81-18.78-17.15-18.89s-16.81,6.76-17.44,18.58c-.13,2.48,0,5,0,7.45l.18,116.06v12.83h-34.9v-13.2q-.06-69.73-.15-139.48c0-13.36-7.82-20.85-19.48-19.28-9.84,1.32-14.83,8.18-14.84,21.09q-.06,69.19.07,138.41v12.32H265.4V275c0-34.43,0-68.85-.14-103.28-.07-14.28-6.53-21.86-17.74-21.56s-16.89,8-16.87,22.41q.12,103.81.13,207.63c0,3.4-.45,6.81-.76,11.18-4.29-1.61-7.55-2.72-10.73-4q-33-13.56-65.9-27.21c-9.16-3.81-17.45-3.56-23.55,5.33-5.13,7.48-3.19,17.59,4.38,25a28.26,28.26,0,0,0,2.38,2.13c33.11,26.2,66,52.66,99.44,78.48,17.61,13.61,37,24.14,60.09,24.53,25.91.43,51.84.78,77.72-.1,32-1.09,58-15.2,77.6-40.41,13.95-17.89,21.33-38.34,21.33-61.18q0-94.23-.11-188.46c0-13.4-6.45-20.95-17.28-20.86s-17,7.66-17,21.16c-.09,20.23,0,40.46,0,60.69v21.38Z"/><path class="cls-3" d="M352,426.82c-20.08-18-38.79-36.31-48.77-61.21-2.85-7.13-3.46-16.13-2.15-23.77,3.32-19.47,23.37-25.7,37.61-11.8,5.63,5.49,9.17,13.12,13.31,19.24,3.29-5.41,6.34-12.18,11-17.59,6.37-7.44,15.14-10.53,25-8,10,2.58,14.85,10.45,14.83,19.75s-1,19.29-4.69,27.55C388,393.34,370.35,410,352,426.82"/></g></g></g></svg>